<?xml version="1.0" encoding="UTF-8" standalone="no"?>
<svg
   xmlns:dc="http://purl.org/dc/elements/1.1/"
   xmlns:cc="http://creativecommons.org/ns#"
   xmlns:rdf="http://www.w3.org/1999/02/22-rdf-syntax-ns#"
   xmlns:svg="http://www.w3.org/2000/svg"
   xmlns="http://www.w3.org/2000/svg"
   version="1.1"
   id="svg2"
   viewBox="0 0 744.09448819 1052.3622047"
   height="297mm"
   width="210mm">
  <defs
     id="defs4" />
  <metadata
     id="metadata7">
    <rdf:RDF>
      <cc:Work
         rdf:about="">
        <dc:format>image/svg+xml</dc:format>
        <dc:type
           rdf:resource="http://purl.org/dc/dcmitype/StillImage" />
        <dc:title></dc:title>
      </cc:Work>
    </rdf:RDF>
  </metadata>
  <g
     id="layer1">
    <g
       transform="matrix(0.8328819,0,0,0.8328819,94.17861,20.742139)"
       id="g4380">
      <g
         id="g4215">
        <path
           id="rect4165"
           d="m -34.83398,253.36133 c 4.37361,69.83552 40.36413,109.31882 111.40039,115.1582 14.50061,-51.79909 40.69623,-97.26339 118.58984,-114.72461 l -0.10498,-0.1084 -0.10498,-0.1084 -0.10498,-0.10839 -0.10498,-0.1084 -57.39258,0 -59.39257,17 -42.39258,16 c -27.27901,11.71606 -51.03361,-18.31591 -70.39258,-33 z"
           style="opacity:1;fill:#ff0000;fill-opacity:1;stroke:none;stroke-width:3.20900011;stroke-linecap:round;stroke-linejoin:round;stroke-miterlimit:4;stroke-dasharray:none;stroke-opacity:1" />
        <g
           id="g4176">
          <path
             style="opacity:1;fill:#ffb380;fill-rule:evenodd;stroke:none;stroke-width:1.10864747px;stroke-linecap:butt;stroke-linejoin:miter;stroke-opacity:1"
             d="M 337.5,194.41602 A 249.44605,249.44605 0 0 0 88.054688,443.86133 249.44605,249.44605 0 0 0 337.5,693.30859 249.44605,249.44605 0 0 0 586.94531,443.86133 a 249.44605,249.44605 0 0 0 -72.5039,-175.5586 52.40796,52.621212 30.000014 0 1 -51.6875,-0.24023 52.40796,52.621212 30.000014 0 1 -25.53907,-52.52148 249.44605,249.44605 0 0 0 -2.74023,-1.22657 35.318408,35.462121 30.000014 0 1 -32.70117,-1.27343 A 35.318408,35.462121 30.000014 0 1 388.88672,200.0625 249.44605,249.44605 0 0 0 337.5,194.41602 Z m 0,162.14062 A 87.306112,87.306112 0 0 1 424.80664,443.86133 87.306112,87.306112 0 0 1 337.5,531.16797 87.306112,87.306112 0 0 1 250.19336,443.86133 87.306112,87.306112 0 0 1 337.5,356.55664 Z"
             id="path4144" />
          <path
             style="color:#000000;font-style:normal;font-variant:normal;font-weight:normal;font-stretch:normal;font-size:medium;line-height:normal;font-family:sans-serif;text-indent:0;text-align:start;text-decoration:none;text-decoration-line:none;text-decoration-style:solid;text-decoration-color:#000000;letter-spacing:normal;word-spacing:normal;text-transform:none;direction:ltr;block-progression:tb;writing-mode:lr-tb;baseline-shift:baseline;text-anchor:start;white-space:normal;clip-rule:nonzero;display:inline;overflow:visible;visibility:visible;opacity:1;isolation:auto;mix-blend-mode:normal;color-interpolation:sRGB;color-interpolation-filters:linearRGB;solid-color:#000000;solid-opacity:1;fill:#3e352f;fill-opacity:1;fill-rule:evenodd;stroke:none;stroke-width:25;stroke-linecap:round;stroke-linejoin:round;stroke-miterlimit:4;stroke-dasharray:none;stroke-dashoffset:0;stroke-opacity:1;color-rendering:auto;image-rendering:auto;shape-rendering:auto;text-rendering:auto;enable-background:accumulate"
             d="m 334.25977,171.99414 c -93.84401,0.68449 -184.94196,53.10751 -231.51172,134.91797 -24.050212,41.08735 -36.750608,86.77324 -37.019534,134.37891 a 12.50125,12.50125 0 0 0 0,0.0391 c -0.03729,14.61367 2.109678,29.51273 7.880859,42.19922 5.771181,12.68649 17.41765,24.45312 33.169925,24.45312 7.1508,0 14.09979,-2.60612 19.16406,-6.71094 5.06427,-4.10481 8.40978,-9.26476 10.99609,-14.58203 5.17263,-10.63454 7.70099,-22.55596 10.51758,-33.80078 2.81659,-11.24481 5.93001,-21.71756 9.68555,-27.97265 3.75554,-6.2551 5.91329,-8.19336 12.5918,-8.19336 8.17049,0 9.48767,1.64394 12.30078,6.40625 2.8131,4.7623 4.96752,13.66366 6.96484,23.6914 1.99732,10.02775 3.83675,21.17134 9.83789,31.46094 6.00114,10.2896 18.38615,18.75195 33.60742,18.75195 10.12178,0 18.69768,-1.96735 25.54102,-6.39453 6.84334,-4.42718 11.1602,-11.2286 13.1875,-17.63867 4.00701,-12.66971 1.81497,-24.48971 1.60156,-31.60938 0.49719,-24.41401 14.93121,-46.97562 37.49609,-56.2539 a 12.50125,12.50125 0 0 0 0.38086,-0.16406 c 9.0411,-4.0742 18.7798,-6.07779 28.84961,-5.94727 a 12.50125,12.50125 0 0 0 0.11524,0.002 c 32.60338,0.1209 63.23892,31.85465 62.97265,64.23047 a 12.50125,12.50125 0 0 0 0.002,0.34766 c 0.32805,16.79875 1.42879,36.49841 6.25781,53.51953 2.41451,8.51056 5.7108,16.50753 11.38477,23.1875 5.67394,6.67997 14.67853,11.70508 24.52343,11.70508 9.32675,0 18.05442,-3.03833 24.52735,-8.3418 6.47292,-5.30346 10.618,-12.29739 13.50195,-19.61719 5.76791,-14.63958 7.18167,-31.43381 8.58789,-47.58789 1.40622,-16.15407 2.76401,-31.7328 5.81836,-41.41406 1.52717,-4.84063 3.40738,-7.94567 4.85937,-9.37109 1.452,-1.42543 2.20475,-1.93164 5.3711,-1.93164 0.79667,0 0.57626,-0.29669 2.05859,1.41406 1.48233,1.71075 3.63739,5.59552 5.50391,10.99609 3.73303,10.80115 6.55175,27.14268 9.44726,43.86914 2.89552,16.72647 5.84501,33.85325 11.43555,48.21875 2.79527,7.18276 6.24008,13.82513 11.60547,19.3086 5.36539,5.48347 13.35487,9.48437 21.86719,9.48437 9.60869,0 17.98387,-5.66638 23.09375,-12.38672 5.10987,-6.72034 8.23466,-14.68736 10.63672,-23.44922 4.80015,-17.50924 6.37281,-38.51334 6.1875,-57.91992 -0.18444,-49.84999 -14.16092,-99.50414 -40.22657,-141.98633 a 35.318408,40.858531 30 0 1 -36.81445,2.5293 35.318408,40.858531 30 0 1 -16.33008,-30.58398 52.40796,60.628788 30 0 1 -61.14258,8.68359 52.40796,60.628788 30 0 1 -22.43554,-60.05469 35.318408,40.858531 30 0 1 -37.24024,2.77344 35.318408,40.858531 30 0 1 -12.27343,-48.86719 c -12.82944,-2.18211 -25.83301,-3.44255 -38.90235,-3.68945 -3.22263,-0.0913 -6.43487,-0.1226 -9.63281,-0.0996 a 12.50125,12.50125 0 0 0 -0.002,0 z"
             id="path4150" />
          <path
             style="opacity:1;fill:#6c5d53;fill-rule:evenodd;stroke:none;stroke-width:1.10864747px;stroke-linecap:butt;stroke-linejoin:miter;stroke-opacity:1"
             d="m 334.35156,184.49414 c -89.23155,0.65085 -176.5715,50.94975 -220.77734,128.66211 -23.0103,39.28342 -35.088874,82.73981 -35.345704,128.20508 -0.0676,26.4867 8.573382,54.12109 28.550784,54.12109 36.19601,0 18.95658,-91.25976 62.95508,-91.25976 46.93967,0 16.22167,80.31054 62.71093,80.31054 34.01515,0 28.20898,-26.41766 27.81446,-43.17187 0.50924,-29.27339 17.80476,-56.49695 45.25781,-67.78516 10.71893,-4.83028 22.3025,-7.20235 34.14648,-7.04883 40.20659,0.14909 75.75367,36.96556 75.42578,76.83399 0.63916,32.72957 4.89852,76.15625 29.66797,76.15625 55.27803,0 14.94168,-128.26367 62.66797,-128.26367 36.66673,0 20.89765,133.29101 61.91797,133.29101 20.88069,0 27.77686,-43.9842 27.41602,-81.18359 -0.16523,-45.91191 -12.65314,-91.75018 -35.86719,-131.31641 a 35.318408,45.869483 30 0 1 -34.89844,2.56446 35.318408,45.869483 30 0 1 -15.20508,-32.52735 52.40796,68.064394 30 0 1 -63.47851,12.72852 52.40796,68.064394 30 0 1 -19.9336,-64.38867 35.318408,45.869483 30 0 1 -38.52929,5.00585 35.318408,45.869483 30 0 1 -12.00586,-47.94531 c -10.99454,-1.70106 -22.10634,-2.68721 -33.25586,-2.89453 -3.07729,-0.0878 -6.15595,-0.11587 -9.23438,-0.0937 z"
             id="path4195" />
          <path
             style="opacity:0.556;fill:#ffffff;fill-rule:evenodd;stroke:none;stroke-width:1.10899997;stroke-linecap:butt;stroke-linejoin:miter;stroke-miterlimit:4;stroke-dasharray:none;stroke-opacity:1"
             d="m 507.87305,403.73438 c -0.11453,0.001 -0.25005,0.0195 -0.44922,0.0195 -3.16635,0 -3.9191,0.50621 -5.3711,1.93164 -1.45199,1.42542 -3.3322,4.53046 -4.85937,9.37109 -3.05435,9.68126 -4.41214,25.25999 -5.81836,41.41406 -1.40622,16.15408 -2.81998,32.94831 -8.58789,47.58789 -2.88395,7.3198 -7.02903,14.31373 -13.50195,19.61719 -5.80722,4.75803 -13.43061,7.68493 -21.67188,8.23828 -23.3043,28.43312 -56.91881,48.45316 -93.83398,51.94532 -65.51412,7.54807 -132.93913,-37.05965 -151.24024,-100.41993 -1.41017,-1.64321 -2.65809,-3.36974 -3.70117,-5.1582 -6.00114,-10.2896 -7.84057,-21.43319 -9.83789,-31.46094 -1.99732,-10.02774 -4.15174,-18.9291 -6.96484,-23.6914 -2.81311,-4.76231 -4.13029,-6.40625 -12.30078,-6.40625 -6.67851,0 -8.83626,1.93826 -12.5918,8.19336 -3.75554,6.25509 -6.86896,16.72784 -9.68555,27.97265 -0.98591,3.93611 -1.94137,7.95496 -2.98242,11.97266 7.38673,60.02576 42.04096,117.05964 95.33594,146.78515 62.36719,36.26851 145.18173,35.78457 205.40429,-4.8125 42.17736,-27.60786 72.6169,-72.23689 84.11524,-120.99804 -1.88166,-8.41973 -3.40046,-17.16068 -4.89649,-25.80274 -2.89551,-16.72646 -5.71423,-33.06799 -9.44726,-43.86914 -1.86652,-5.40057 -4.02158,-9.28534 -5.50391,-10.99609 -1.11175,-1.28306 -1.26578,-1.43685 -1.60937,-1.43359 z"
             id="path4153" />
          <path
             style="opacity:0.556;fill:#ffffff;fill-rule:evenodd;stroke:none;stroke-width:1.10899997;stroke-linecap:butt;stroke-linejoin:miter;stroke-miterlimit:4;stroke-dasharray:none;stroke-opacity:1"
             d="m 336.93945,247.41211 c -86.97177,-0.66548 -170.50504,65.58458 -189.08203,151.03711 -0.57128,2.42088 -1.08759,4.85165 -1.55664,7.29101 0.67038,-0.71505 1.35712,-1.4208 2.08008,-2.10546 15.51065,-13.28643 42.41893,-8.00997 52.01758,9.66015 9.36753,-41.3672 36.68721,-78.89024 75.32617,-97.35351 19.59738,-9.609 41.43126,-14.41231 63.22266,-14.60743 64.20615,-1.31075 123.14253,48.71444 137.88671,110.11329 2.52164,-8.79717 6.58981,-17.00576 13.68555,-22.97657 10.99944,-8.21336 29.41963,-6.72766 36.39063,6.03711 0.61688,0.95677 1.19741,1.92779 1.76172,2.9043 -8.03798,-33.21868 -25.13773,-64.22353 -48.60938,-89.14649 a 52.40796,75.5 30 0 1 -40.1875,-0.57617 52.40796,75.5 30 0 1 -21.16211,-43.11718 c -4.22698,-1.8585 -8.53053,-3.56064 -12.91016,-5.08594 -21.95311,-8.10029 -45.3371,-12.33629 -68.86328,-12.07422 z"
             id="path4210" />
          <rect
             transform="matrix(0.61113262,-0.79152822,0.79152822,0.61113262,0,0)"
             ry="6.8349752"
             y="325.86478"
             x="-264.45901"
             height="13.66995"
             width="50"
             id="rect4139"
             style="opacity:1;fill:#00ff00;fill-opacity:1;stroke:none;stroke-width:3.20900011;stroke-linecap:round;stroke-linejoin:round;stroke-miterlimit:4;stroke-dasharray:none;stroke-opacity:1" />
          <rect
             transform="matrix(0.61113262,-0.79152822,0.79152822,0.61113262,0,0)"
             ry="6.8349752"
             y="308.40707"
             x="-117.48886"
             height="13.66995"
             width="50"
             id="rect4141"
             style="opacity:1;fill:#00ff00;fill-opacity:1;stroke:none;stroke-width:3.20900011;stroke-linecap:round;stroke-linejoin:round;stroke-miterlimit:4;stroke-dasharray:none;stroke-opacity:1" />
          <rect
             transform="matrix(0.61113262,-0.79152822,0.79152822,0.61113262,0,0)"
             ry="6.8349752"
             y="411.82104"
             x="-189.24921"
             height="13.66995"
             width="50"
             id="rect4143"
             style="opacity:1;fill:#00ff00;fill-opacity:1;stroke:none;stroke-width:3.20900011;stroke-linecap:round;stroke-linejoin:round;stroke-miterlimit:4;stroke-dasharray:none;stroke-opacity:1" />
          <rect
             transform="matrix(0.61113262,-0.79152822,0.79152822,0.61113262,0,0)"
             ry="6.8349752"
             y="380.77853"
             x="-14.866401"
             height="13.66995"
             width="50"
             id="rect4145"
             style="opacity:1;fill:#00ff00;fill-opacity:1;stroke:none;stroke-width:3.20900011;stroke-linecap:round;stroke-linejoin:round;stroke-miterlimit:4;stroke-dasharray:none;stroke-opacity:1" />
          <rect
             transform="matrix(0.61113262,-0.79152822,0.79152822,0.61113262,0,0)"
             ry="6.8349752"
             y="502.87997"
             x="-35.560329"
             height="13.66995"
             width="50"
             id="rect4147"
             style="opacity:1;fill:#00ff00;fill-opacity:1;stroke:none;stroke-width:3.20900011;stroke-linecap:round;stroke-linejoin:round;stroke-miterlimit:4;stroke-dasharray:none;stroke-opacity:1" />
          <rect
             transform="matrix(0.61113262,-0.79152822,0.79152822,0.61113262,0,0)"
             ry="6.8349752"
             y="606.98608"
             x="-85.308838"
             height="13.66995"
             width="50"
             id="rect4149"
             style="opacity:1;fill:#00ff00;fill-opacity:1;stroke:none;stroke-width:3.20900011;stroke-linecap:round;stroke-linejoin:round;stroke-miterlimit:4;stroke-dasharray:none;stroke-opacity:1" />
          <rect
             transform="matrix(0.61113262,-0.79152822,0.79152822,0.61113262,0,0)"
             ry="6.8349752"
             y="649.29059"
             x="21.893456"
             height="13.66995"
             width="50"
             id="rect4151"
             style="opacity:1;fill:#00ff00;fill-opacity:1;stroke:none;stroke-width:3.20900011;stroke-linecap:round;stroke-linejoin:round;stroke-miterlimit:4;stroke-dasharray:none;stroke-opacity:1" />
          <rect
             transform="matrix(-0.73544944,-0.6775796,0.6775796,-0.73544944,0,0)"
             ry="6.8349752"
             y="-58.998383"
             x="-419.78561"
             height="13.66995"
             width="50"
             id="rect4153"
             style="opacity:1;fill:#00ff00;fill-opacity:1;stroke:none;stroke-width:3.20900011;stroke-linecap:round;stroke-linejoin:round;stroke-miterlimit:4;stroke-dasharray:none;stroke-opacity:1" />
          <rect
             transform="matrix(-0.73544944,-0.6775796,0.6775796,-0.73544944,0,0)"
             ry="6.8349752"
             y="50.198109"
             x="-604.72107"
             height="13.66995"
             width="50"
             id="rect4155"
             style="opacity:1;fill:#00ff00;fill-opacity:1;stroke:none;stroke-width:3.20900011;stroke-linecap:round;stroke-linejoin:round;stroke-miterlimit:4;stroke-dasharray:none;stroke-opacity:1" />
          <rect
             transform="matrix(-0.73544944,-0.6775796,0.6775796,-0.73544944,0,0)"
             ry="6.8349752"
             y="-149.26593"
             x="-360.18048"
             height="13.66995"
             width="50"
             id="rect4157"
             style="opacity:1;fill:#00ff00;fill-opacity:1;stroke:none;stroke-width:3.20900011;stroke-linecap:round;stroke-linejoin:round;stroke-miterlimit:4;stroke-dasharray:none;stroke-opacity:1" />
          <rect
             transform="matrix(-0.73544944,-0.6775796,0.6775796,-0.73544944,0,0)"
             ry="6.8349752"
             y="31.732121"
             x="-468.08649"
             height="13.66995"
             width="50"
             id="rect4159"
             style="opacity:1;fill:#00ff00;fill-opacity:1;stroke:none;stroke-width:3.20900011;stroke-linecap:round;stroke-linejoin:round;stroke-miterlimit:4;stroke-dasharray:none;stroke-opacity:1" />
          <rect
             transform="matrix(-0.73544944,-0.6775796,0.6775796,-0.73544944,0,0)"
             ry="6.8349752"
             y="-35.160061"
             x="-494.36264"
             height="13.66995"
             width="50"
             id="rect4161"
             style="opacity:1;fill:#00ff00;fill-opacity:1;stroke:none;stroke-width:3.20900011;stroke-linecap:round;stroke-linejoin:round;stroke-miterlimit:4;stroke-dasharray:none;stroke-opacity:1" />
          <rect
             style="opacity:1;fill:#00ff00;fill-opacity:1;stroke:none;stroke-width:3.20900011;stroke-linecap:round;stroke-linejoin:round;stroke-miterlimit:4;stroke-dasharray:none;stroke-opacity:1"
             id="rect4266"
             width="50"
             height="13.66995"
             x="-758.4519"
             y="36.825153"
             ry="6.8349752"
             transform="matrix(-0.73544944,-0.6775796,0.6775796,-0.73544944,0,0)" />
        </g>
        <path
           id="path4203"
           d="m 707.15625,247.36133 c -19.35897,14.68409 -43.11357,44.71606 -70.39258,33 l -27.39258,1 -23.95507,-7.28516 c 7.80501,11.49101 -5.646,11.24295 -14.13868,23.76953 -0.97646,1.41781 -2.04481,2.77462 -3.19726,4.06055 13.31652,17.98814 21.54985,38.73024 27.67578,60.61328 71.03626,-5.83938 107.02678,-45.32268 111.40039,-115.1582 z"
           style="opacity:1;fill:#ff0000;fill-opacity:1;stroke:none;stroke-width:3.20900011;stroke-linecap:round;stroke-linejoin:round;stroke-miterlimit:4;stroke-dasharray:none;stroke-opacity:1" />
      </g>
      <ellipse
         style="opacity:1;fill:#ffffff;fill-opacity:1;stroke:#000000;stroke-width:3.20900011;stroke-linecap:round;stroke-linejoin:round;stroke-miterlimit:4;stroke-dasharray:none;stroke-opacity:1"
         id="path4238"
         cx="186"
         cy="369.86221"
         rx="87"
         ry="55.5" />
      <ellipse
         ry="55.5"
         rx="87"
         cy="369.86221"
         cx="487"
         id="ellipse4246"
         style="opacity:1;fill:#ffffff;fill-opacity:1;stroke:#000000;stroke-width:3.20900011;stroke-linecap:round;stroke-linejoin:round;stroke-miterlimit:4;stroke-dasharray:none;stroke-opacity:1" />
      <g
         id="g4256"
         transform="translate(454,-40.5)">
        <circle
           style="opacity:1;fill:#ff0000;fill-opacity:1;stroke:#000000;stroke-width:3.20900011;stroke-linecap:round;stroke-linejoin:round;stroke-miterlimit:4;stroke-dasharray:none;stroke-opacity:1"
           id="circle4252"
           cx="-266"
           cy="410.36221"
           r="62" />
        <circle
           r="31.294626"
           cy="411.86221"
           cx="-266.5"
           id="circle4254"
           style="opacity:1;fill:#000000;fill-opacity:1;stroke:#000000;stroke-width:1.61974931;stroke-linecap:round;stroke-linejoin:round;stroke-miterlimit:4;stroke-dasharray:none;stroke-opacity:1" />
      </g>
      <g
         transform="translate(756,-40.5)"
         id="g4260">
        <circle
           r="62"
           cy="410.36221"
           cx="-266"
           id="circle4262"
           style="opacity:1;fill:#ff0000;fill-opacity:1;stroke:#000000;stroke-width:3.20900011;stroke-linecap:round;stroke-linejoin:round;stroke-miterlimit:4;stroke-dasharray:none;stroke-opacity:1" />
        <circle
           style="opacity:1;fill:#000000;fill-opacity:1;stroke:#000000;stroke-width:1.61974931;stroke-linecap:round;stroke-linejoin:round;stroke-miterlimit:4;stroke-dasharray:none;stroke-opacity:1"
           id="circle4264"
           cx="-266.5"
           cy="411.86221"
           r="31.294626" />
      </g>
      <path
         style="opacity:1;fill:#ffffff;fill-opacity:1;stroke:#000000;stroke-width:4.63742447;stroke-linecap:round;stroke-linejoin:round;stroke-miterlimit:4;stroke-dasharray:none;stroke-opacity:1"
         d="m 170.60262,503.71176 c -0.0591,0.48769 -0.11534,0.97569 -0.16879,1.46392 -0.0533,0.48824 -0.10373,0.97675 -0.15124,1.46548 -0.0475,0.48873 -0.0921,0.97769 -0.13363,1.46689 -0.0416,0.4892 -0.0802,0.9786 -0.11614,1.46822 -1.52008,39.64957 15.88179,76.26556 45.24565,103.41317 29.36388,27.14758 70.68975,44.82678 117.01765,46.6028 46.32789,1.776 88.88603,-12.68726 120.24223,-37.50691 31.35618,-24.81966 51.51041,-59.99572 53.0305,-99.64529 0.0101,-0.49045 0.0177,-0.98094 0.0221,-1.47148 0.004,-0.49055 0.006,-0.98113 0.005,-1.47174 -0.001,-0.49061 -0.006,-0.98123 -0.0131,-1.47188 -0.007,-0.49063 -0.0175,-0.98129 -0.0307,-1.47191 l -79.80036,23.84964 c -27.41835,2.87307 -57.19813,5.65562 -87.91322,8.40229 -30.59357,-0.61743 -63.1541,-3.95349 -93.28503,-13.66725 -18.65247,-4.63602 -45.85896,-17.60014 -73.95054,-31.42595 z"
         id="path4266" />
      <g
         id="g4345"
         transform="matrix(1.0884809,0.04173015,-0.04372428,1.1404953,-5.2831145,-105.91105)">
        <path
           id="path4275"
           d="m 321.09604,561.77734 36.29444,97.03735"
           style="fill:#000000;fill-rule:evenodd;stroke:#000000;stroke-width:2.59215546;stroke-linecap:butt;stroke-linejoin:miter;stroke-miterlimit:4;stroke-dasharray:none;stroke-opacity:1" />
        <path
           style="fill:#000000;fill-rule:evenodd;stroke:#000000;stroke-width:2.59215546;stroke-linecap:butt;stroke-linejoin:miter;stroke-miterlimit:4;stroke-dasharray:none;stroke-opacity:1"
           d="m 318.62669,564.70746 -35.2015,88.23216"
           id="path4277" />
        <path
           id="path4279"
           d="m 242.41955,551.49707 40.77814,98.45576"
           style="fill:#000000;fill-rule:evenodd;stroke:#000000;stroke-width:2.59215546;stroke-linecap:butt;stroke-linejoin:miter;stroke-miterlimit:4;stroke-dasharray:none;stroke-opacity:1" />
        <path
           style="fill:#000000;fill-rule:evenodd;stroke:#000000;stroke-width:2.56759787;stroke-linecap:butt;stroke-linejoin:miter;stroke-miterlimit:4;stroke-dasharray:none;stroke-opacity:1"
           d="m 242.0006,551.50798 -27.11452,61.73229"
           id="path4281" />
        <path
           id="path4283"
           d="m 392.7634,555.88262 -35.16891,98.51949"
           style="fill:#000000;fill-rule:evenodd;stroke:#000000;stroke-width:2.59215546;stroke-linecap:butt;stroke-linejoin:miter;stroke-miterlimit:4;stroke-dasharray:none;stroke-opacity:1" />
        <path
           style="fill:#000000;fill-rule:evenodd;stroke:#000000;stroke-width:2.59215546;stroke-linecap:butt;stroke-linejoin:miter;stroke-miterlimit:4;stroke-dasharray:none;stroke-opacity:1"
           d="m 394.04073,554.37338 31.86618,79.45091"
           id="path4285" />
        <path
           id="path4287"
           d="M 464.5865,533.82641 424.95088,638.17408"
           style="fill:#000000;fill-rule:evenodd;stroke:#000000;stroke-width:2.59215546;stroke-linecap:butt;stroke-linejoin:miter;stroke-miterlimit:4;stroke-dasharray:none;stroke-opacity:1" />
        <path
           style="fill:#000000;fill-rule:evenodd;stroke:#000000;stroke-width:2.03048944;stroke-linecap:butt;stroke-linejoin:miter;stroke-miterlimit:4;stroke-dasharray:none;stroke-opacity:1"
           d="m 184.15348,531.38526 31.31028,78.67938"
           id="path4341" />
        <path
           id="path4343"
           d="m 465.69027,533.19749 15.2367,44.05492"
           style="fill:#000000;fill-rule:evenodd;stroke:#000000;stroke-width:1.05991125;stroke-linecap:butt;stroke-linejoin:miter;stroke-miterlimit:4;stroke-dasharray:none;stroke-opacity:1" />
      </g>
    </g>
  </g>
</svg>
